<?xml version="1.0" standalone="no"?>
<!DOCTYPE svg PUBLIC "-//W3C//DTD SVG 20010904//EN"
 "http://www.w3.org/TR/2001/REC-SVG-20010904/DTD/svg10.dtd">
<svg version="1.0" xmlns="http://www.w3.org/2000/svg"
 width="206.000000pt" height="206.000000pt" viewBox="0 0 206.000000 206.000000"
 preserveAspectRatio="xMidYMid meet">
<metadata>
Created by potrace 1.11, written by Peter Selinger 2001-2013
</metadata>
<g transform="translate(0.000000,206.000000) scale(0.100000,-0.100000)"
fill="#000000" stroke="none">
<path d="M655 2026 c-26 -31 -293 -312 -418 -440 l-97 -101 5 -130 c4 -71 8
-159 10 -195 2 -36 7 -128 10 -205 11 -234 13 -266 17 -270 1 -1 128 -57 281
-124 l278 -121 62 34 c66 36 71 39 306 167 l153 83 -184 175 c-100 97 -223
215 -272 262 l-89 86 -3 69 c-5 145 -16 534 -17 631 -1 62 -6 103 -12 102 -5
0 -19 -11 -30 -23z"/>
<path d="M1305 1611 c-9 -8 -52 -31 -255 -139 -47 -25 -114 -62 -150 -82 -36
-20 -74 -40 -85 -44 -17 -6 -8 -19 76 -99 53 -51 176 -169 275 -264 l179 -171
1 -84 c1 -45 5 -193 9 -328 4 -135 8 -280 9 -323 l1 -78 90 94 c292 306 406
426 434 457 l32 35 -6 95 c-3 52 -7 136 -10 185 -13 276 -17 355 -20 405 -2
30 -3 67 -4 81 -1 26 0 25 -131 82 -25 11 -67 30 -95 42 -27 12 -95 42 -150
65 -55 23 -106 47 -114 54 -8 6 -15 10 -15 8 -1 -2 -14 1 -29 7 -34 13 -31 13
-42 2z"/>
</g>
</svg>
